<svg width="200" height="100" viewBox="0 0 262 115" fill="none" xmlns="http://www.w3.org/2000/svg">
<path d="M77.1996 57C77.1996 77.7161 60.4713 94.5 39.8479 94.5C19.2245 94.5 2.4962 77.7161 2.4962 57C2.4962 36.2839 19.2245 19.5 39.8479 19.5C60.4713 19.5 77.1996 36.2839 77.1996 57Z" stroke="white" stroke-width="3"/>
<path d="M29.8967 54.088C31.3847 54.088 32.7167 54.412 33.8927 55.06C35.0687 55.708 35.9807 56.62 36.6287 57.796C37.2767 58.972 37.6007 60.304 37.6007 61.792C37.6007 63.448 37.2287 64.924 36.4847 66.22C35.7647 67.492 34.7567 68.488 33.4607 69.208C32.1647 69.928 30.6887 70.288 29.0327 70.288C26.0087 70.288 23.7287 69.268 22.1927 67.228C20.6807 65.164 19.9247 62.092 19.9247 58.012C19.9247 53.5 20.8607 50.08 22.7327 47.752C24.6287 45.4 27.3887 44.224 31.0127 44.224C32.0687 44.224 33.0407 44.344 33.9287 44.584C34.8407 44.824 35.7287 45.196 36.5927 45.7L35.1887 48.112C33.9407 47.44 32.5607 47.104 31.0487 47.104C28.6487 47.104 26.8367 47.884 25.6127 49.444C24.3887 50.98 23.7047 53.344 23.5607 56.536C24.4247 55.744 25.3967 55.144 26.4767 54.736C27.5807 54.304 28.7207 54.088 29.8967 54.088ZM29.0687 67.336C29.9807 67.336 30.8087 67.096 31.5527 66.616C32.3207 66.136 32.9207 65.476 33.3527 64.636C33.7847 63.796 34.0007 62.86 34.0007 61.828C34.0007 60.316 33.5807 59.128 32.7407 58.264C31.9007 57.4 30.7367 56.968 29.2487 56.968C28.2167 56.968 27.1847 57.184 26.1527 57.616C25.1447 58.024 24.2807 58.588 23.5607 59.308C23.6567 62.116 24.1487 64.156 25.0367 65.428C25.9247 66.7 27.2687 67.336 29.0687 67.336ZM50.498 54.052C51.986 54.052 53.342 54.376 54.566 55.024C55.79 55.648 56.75 56.56 57.446 57.76C58.142 58.936 58.49 60.328 58.49 61.936C58.49 63.688 58.058 65.2 57.194 66.472C56.354 67.72 55.238 68.668 53.846 69.316C52.454 69.964 50.966 70.288 49.382 70.288C47.822 70.288 46.322 70 44.882 69.424C43.442 68.848 42.23 68.008 41.246 66.904L43.406 64.672C44.198 65.536 45.134 66.208 46.214 66.688C47.294 67.144 48.386 67.372 49.49 67.372C51.002 67.372 52.274 66.904 53.306 65.968C54.362 65.032 54.89 63.712 54.89 62.008C54.89 60.208 54.362 58.888 53.306 58.048C52.274 57.184 50.93 56.752 49.274 56.752C47.786 56.752 46.214 57.076 44.558 57.724L42.578 56.788L43.802 44.512H56.906L56.546 47.392H46.754L45.998 54.952C47.51 54.352 49.01 54.052 50.498 54.052Z" fill="white"/>
<path d="M115.654 39.4277C115.32 42.2851 114.263 44.4931 112.481 46.0517C110.712 47.598 108.356 48.3711 105.412 48.3711C102.221 48.3711 99.6601 47.2269 97.7304 44.9385C95.8131 42.65 94.8544 39.5885 94.8544 35.7539V33.1562C94.8544 30.6452 95.2997 28.4372 96.1903 26.5322C97.0933 24.6273 98.3674 23.1676 100.013 22.1533C101.658 21.1266 103.563 20.6133 105.727 20.6133C108.597 20.6133 110.898 21.4173 112.63 23.0254C114.362 24.6211 115.37 26.8353 115.654 29.668H112.073C111.764 27.5156 111.09 25.957 110.051 24.9922C109.024 24.0273 107.583 23.5449 105.727 23.5449C103.451 23.5449 101.664 24.3861 100.365 26.0683C99.0787 27.7506 98.4355 30.1442 98.4355 33.249V35.8652C98.4355 38.7969 99.0478 41.1286 100.272 42.8603C101.497 44.5921 103.21 45.458 105.412 45.458C107.391 45.458 108.906 45.0127 109.958 44.1221C111.022 43.2191 111.727 41.6543 112.073 39.4277H115.654ZM135.452 40.9492H124.134L121.592 48H117.918L128.234 20.9844H131.351L141.686 48H138.031L135.452 40.9492ZM125.21 38.0176H134.394L129.793 25.3818L125.21 38.0176ZM166.086 48H162.505L148.904 27.1816V48H145.323V20.9844H148.904L162.542 41.8955V20.9844H166.086V48ZM172.413 48V20.9844H180.039C182.389 20.9844 184.467 21.5039 186.273 22.543C188.079 23.582 189.471 25.0602 190.448 26.9775C191.438 28.8948 191.939 31.0967 191.951 33.583V35.3086C191.951 37.8568 191.456 40.0895 190.467 42.0068C189.489 43.9241 188.086 45.3961 186.255 46.4228C184.436 47.4495 182.315 47.9752 179.891 48H172.413ZM175.975 23.916V45.0869H179.724C182.47 45.0869 184.603 44.2334 186.125 42.5264C187.659 40.8193 188.426 38.3887 188.426 35.2344V33.6572C188.426 30.5895 187.702 28.2083 186.255 26.5137C184.82 24.8066 182.779 23.9407 180.132 23.916H175.975ZM204.772 34.5478L211.823 20.9844H215.868L206.554 37.9248V48H202.991V37.9248L193.677 20.9844H197.759L204.772 34.5478ZM116.267 84.001C116.056 86.9079 114.98 89.1963 113.038 90.8662C111.108 92.5361 108.56 93.3711 105.393 93.3711C101.93 93.3711 99.2024 92.2083 97.2108 89.8828C95.2317 87.5449 94.2421 84.3411 94.2421 80.2715V78.6201C94.2421 76.0224 94.6998 73.734 95.6151 71.7549C96.5305 69.7757 97.8355 68.2604 99.5302 67.209C101.237 66.1452 103.216 65.6133 105.468 65.6133C108.585 65.6133 111.096 66.4482 113.001 68.1181C114.906 69.7881 116.007 72.1321 116.304 75.1504H110.737C110.601 73.4062 110.113 72.1445 109.271 71.3652C108.443 70.5736 107.175 70.1777 105.468 70.1777C103.612 70.1777 102.221 70.8457 101.293 72.1816C100.378 73.5052 99.9075 75.5648 99.8827 78.3603V80.4014C99.8827 83.3206 100.322 85.4544 101.2 86.8027C102.091 88.151 103.489 88.8252 105.393 88.8252C107.113 88.8252 108.393 88.4355 109.234 87.6562C110.088 86.8646 110.576 85.6461 110.7 84.001H116.267ZM129.923 83.1103H125.488V93H119.922V65.9844H129.96C133.151 65.9844 135.613 66.6956 137.345 68.1181C139.076 69.5407 139.942 71.5508 139.942 74.1484C139.942 75.9915 139.54 77.5316 138.736 78.7685C137.945 79.9931 136.739 80.9704 135.118 81.7002L140.963 92.7402V93H134.988L129.923 83.1103ZM125.488 78.6015H129.978C131.376 78.6015 132.459 78.249 133.225 77.5439C133.992 76.8265 134.376 75.8431 134.376 74.5937C134.376 73.3196 134.011 72.3177 133.281 71.5879C132.564 70.8581 131.457 70.4931 129.96 70.4931H125.488V78.6015ZM164.639 65.9844V83.7783C164.639 86.7347 163.711 89.0726 161.855 90.792C160.012 92.5114 157.489 93.3711 154.285 93.3711C151.131 93.3711 148.626 92.5361 146.77 90.8662C144.915 89.1963 143.969 86.9017 143.932 83.9824V65.9844H149.498V83.8154C149.498 85.5843 149.919 86.8769 150.76 87.6933C151.613 88.4974 152.788 88.8994 154.285 88.8994C157.415 88.8994 159.004 87.2542 159.054 83.9639V65.9844H164.639ZM183.212 85.9121C183.212 84.8607 182.841 84.0566 182.099 83.5C181.356 82.931 180.02 82.3372 178.091 81.7187C176.161 81.0879 174.633 80.4694 173.508 79.8633C170.44 78.2057 168.906 75.973 168.906 73.165C168.906 71.7054 169.314 70.4066 170.131 69.2685C170.96 68.1181 172.141 67.2213 173.675 66.5781C175.221 65.9349 176.953 65.6133 178.87 65.6133C180.8 65.6133 182.519 65.9658 184.028 66.6709C185.537 67.3636 186.706 68.347 187.535 69.6211C188.376 70.8952 188.797 72.3424 188.797 73.9629H183.23C183.23 72.7259 182.841 71.7672 182.061 71.0869C181.282 70.3942 180.187 70.0478 178.777 70.0478C177.417 70.0478 176.359 70.3385 175.604 70.9199C174.85 71.4889 174.473 72.2435 174.473 73.1836C174.473 74.0618 174.912 74.7978 175.79 75.3916C176.681 75.9853 177.986 76.542 179.705 77.0615C182.872 78.014 185.179 79.1953 186.626 80.6055C188.073 82.0156 188.797 83.7721 188.797 85.875C188.797 88.2129 187.912 90.0498 186.143 91.3857C184.375 92.7093 181.993 93.3711 179 93.3711C176.922 93.3711 175.029 92.9938 173.322 92.2392C171.615 91.4723 170.31 90.4271 169.407 89.1035C168.517 87.7799 168.071 86.2461 168.071 84.5019H173.656C173.656 87.4831 175.437 88.9736 179 88.9736C180.323 88.9736 181.356 88.7077 182.099 88.1758C182.841 87.6315 183.212 86.8769 183.212 85.9121ZM214.569 93H209.003V81.4219H198.148V93H192.582V65.9844H198.148V76.9316H209.003V65.9844H214.569V93Z" fill="white"/>
<line x1="219.164" y1="114.5" x2="0.996216" y2="114.5" stroke="white"/>
<line x1="219.164" y1="0.500015" x2="0.996216" y2="0.499996" stroke="white"/>
</svg>
