<svg width="137" height="138" viewBox="0 0 137 138" fill="none" xmlns="http://www.w3.org/2000/svg">
<circle cx="68.5" cy="69.5" r="68.5" fill="#DCF3F8"/>
<path d="M92.7191 35.1C94.9991 35.1 96.8591 35.85 98.2991 37.35C99.7391 38.85 100.459 40.8 100.459 43.2V92.16C100.459 94.44 99.7991 96.24 98.4791 97.56C97.1591 98.88 95.4191 99.54 93.2591 99.54C91.1591 99.54 89.4191 98.88 88.0391 97.56C86.7191 96.24 86.0591 94.44 86.0591 92.16V65.7L75.7991 84.6C74.7791 86.52 73.6991 87.9 72.5591 88.74C71.4191 89.52 70.0691 89.91 68.5091 89.91C66.9491 89.91 65.5991 89.52 64.4591 88.74C63.3191 87.9 62.2391 86.52 61.2191 84.6L51.0491 66.24V92.16C51.0491 94.38 50.3591 96.18 48.9791 97.56C47.6591 98.88 45.9191 99.54 43.7591 99.54C41.6591 99.54 39.9191 98.88 38.5391 97.56C37.2191 96.24 36.5591 94.44 36.5591 92.16V43.2C36.5591 40.8 37.2791 38.85 38.7191 37.35C40.2191 35.85 42.1091 35.1 44.3891 35.1C46.0091 35.1 47.4791 35.58 48.7991 36.54C50.1191 37.44 51.2291 38.76 52.1291 40.5L68.6891 71.64L85.1591 40.5C87.0191 36.9 89.5391 35.1 92.7191 35.1Z" fill="#1E869D"/>
</svg>
